<?xml version="1.0" encoding="utf-8"?>
<!-- Generator: Adobe Illustrator 23.0.0, SVG Export Plug-In . SVG Version: 6.00 Build 0)  -->
<svg version="1.1" id="Capa_1" xmlns="http://www.w3.org/2000/svg" xmlns:xlink="http://www.w3.org/1999/xlink" x="0px" y="0px"
	 viewBox="0 0 752.43 768" style="enable-background:new 0 0 752.43 768;" xml:space="preserve">
<style type="text/css">
	.st0{fill:#FFFFFF;}
	.st1{fill:none;stroke:#FF0000;stroke-width:1.6722;stroke-miterlimit:10;}
	.st2{fill:#FF0000;}
</style>
<g>
	<path class="st0" d="M99,732.83c-11.09-3.92-23.07-6.3-33.1-12.06c-27.71-15.92-41.84-40.9-41.98-72.82
		c-0.34-78.07-0.23-156.15-0.07-234.23c0.1-47.07,37.32-84.34,84.36-84.6c39.49-0.22,78.99-0.05,118.48-0.05c2.47,0,4.93,0,7.39,0
		c0.84-9.15,0.55-17.97,2.69-26.15c2.51-9.59,6.08-19.22,10.99-27.81c37.91-66.34,76.19-132.47,114.47-198.6
		c25.57-44.17,74.72-57.53,119.05-32.1c66.27,38.02,132.34,76.41,198.56,114.53c24.69,14.21,39.84,34.88,44.07,63.26
		c0.13,0.84,0.74,1.6,1.12,2.4c0,5.94,0,11.87,0,17.81c-5.07,30.23-24.51,53.56-38.39,79.53c-4.26,7.98-12.29,9.91-19.14,5.73
		c-6.48-3.96-8.3-11.6-4.07-19.12c8.28-14.7,16.84-29.25,25.23-43.89c17.83-31.13,9.03-64.15-22.12-82.18
		c-65.92-38.15-131.88-76.22-197.88-114.21c-32.39-18.64-64.77-9.81-83.5,22.61c-38,65.74-75.9,131.55-113.96,197.25
		c-6.47,11.17-10.28,22.89-9.02,35.82c0.18,1.82,2.88,4.83,4.47,4.87c14.79,0.38,29.6,0.22,45.42,0.22
		c-5.28-16.04-4.82-30.98,4.65-44.76c5.61-8.15,13.11-13.87,22.42-17.2c18.71-6.68,39.49-0.57,51.56,15.14
		c13.46,17.52,12.73,37.4-2.79,60.18c0.62,0.32,1.48,0.65,2.22,1.17c25.29,17.75,37.27,42.32,37.3,72.98
		c0.01,8.9-0.31,17.82,0.2,26.69c0.15,2.58,2.01,6.09,4.16,7.37c20.37,12.15,40.87,24.08,61.52,35.73
		c29.51,16.64,62.53,7.68,79.79-21.55c9.28-15.7,18.27-31.58,27.4-47.37c3.13-5.41,7.65-8.49,14.07-7.68
		c5.45,0.69,9.78,3.76,10.77,9.1c0.69,3.71,0.3,8.42-1.48,11.64c-9.8,17.76-19.61,35.57-30.49,52.68
		c-23.42,36.82-71.13,49.2-109.57,28.66c-16.68-8.92-32.86-18.78-49.28-28.18c-1.92-1.1-3.92-2.03-7.09-3.65c0,3.67,0,6.28,0,8.89
		c0,52.72,0.12,105.45-0.04,158.17c-0.13,41.13-26.94,74.66-66.44,83.67c-2.85,0.65-5.67,1.41-8.5,2.11
		C267.95,732.83,183.47,732.83,99,732.83z M225.71,705.57c38.12,0,76.24,0.04,114.36-0.01c35.87-0.05,60.25-24.33,60.28-60.13
		c0.06-76.47,0.07-152.94,0-229.4c-0.03-35.34-24.59-59.89-59.87-59.91c-76.47-0.05-152.94-0.04-229.4,0
		c-35.83,0.02-60.14,24.36-60.16,60.2c-0.03,76.24-0.03,152.48,0,228.72c0.01,36.37,24.11,60.5,60.44,60.54
		C149.47,705.6,187.59,705.57,225.71,705.57z M354.49,328.95c10.4-0.03,18.61-8.21,18.67-18.6c0.06-10.66-8.4-18.99-19.12-18.81
		c-10.37,0.17-18.4,8.48-18.3,18.93C335.84,320.88,344.05,328.98,354.49,328.95z"/>
	<path class="st0" d="M400.43,150.76c0.17-25.18,20.76-45.38,46.14-45.26c25.2,0.12,45.54,20.69,45.48,45.98
		c-0.07,25.47-20.9,45.9-46.54,45.63C420.37,196.85,400.25,176.17,400.43,150.76z M464.93,151.52c0.11-10.4-7.96-18.74-18.32-18.92
		c-10.47-0.18-18.85,7.77-19.09,18.12c-0.25,10.76,7.97,19.27,18.62,19.3C456.54,170.04,464.82,161.89,464.93,151.52z"/>
	<path class="st0" d="M650.96,243.35c-0.11,25.2-20.66,45.59-45.92,45.55c-25.48-0.04-45.9-20.8-45.69-46.46
		c0.21-25.14,20.85-45.3,46.25-45.16C630.8,197.43,651.07,218.02,650.96,243.35z M623.87,242.92c-0.07-10.4-8.26-18.54-18.69-18.55
		c-10.42-0.01-18.65,8.12-18.73,18.51c-0.08,10.7,8.33,19.06,19.03,18.91C615.85,261.63,623.93,253.34,623.87,242.92z"/>
	<path class="st0" d="M513.39,356.19c25.26,0,45.74,20.42,45.8,45.66c0.06,25.58-20.54,46.08-46.16,45.97
		c-25.17-0.12-45.52-20.7-45.46-45.99C467.63,376.62,488.15,356.19,513.39,356.19z M532.1,402.02c0.01-10.41-8.13-18.63-18.53-18.72
		c-10.43-0.08-18.74,7.99-18.89,18.35c-0.15,10.73,8.18,19.14,18.87,19.07C523.94,420.65,532.09,412.44,532.1,402.02z"/>
	<path class="st0" d="M525.57,277.53c-0.66,25.45-21.38,45.49-46.48,44.94c-25.34-0.55-45.65-21.39-45.18-46.35
		c0.48-25.62,21.67-46.06,46.92-45.25C506.36,231.68,526.22,252.4,525.57,277.53z M479.28,295.54c10.03,0.36,18.89-7.97,19.37-18.2
		c0.47-9.99-7.78-18.95-18.01-19.53c-10.23-0.59-19.5,8.11-19.75,18.51C460.66,286.34,469.11,295.18,479.28,295.54z"/>
	<path class="st0" d="M630.4,369.49c0.06-7.59,6.04-13.43,13.57-13.26c7.21,0.17,12.91,5.95,13,13.21
		c0.09,7.51-5.9,13.7-13.29,13.72C636.32,383.18,630.34,377.02,630.4,369.49z"/>
	<path class="st0" d="M271.56,622.26c0.1-25.26,20.53-45.53,45.83-45.48c25.1,0.04,45.74,20.67,45.76,45.75
		c0.02,25.37-20.84,45.99-46.37,45.82C291.63,668.19,271.46,647.62,271.56,622.26z M317.37,641.25c10.28-0.06,18.64-8.4,18.68-18.63
		c0.04-10.48-8.64-18.94-19.24-18.74c-10.35,0.2-18.33,8.51-18.2,18.95C298.74,633.24,306.97,641.31,317.37,641.25z"/>
	<path class="st0" d="M317.28,484.9c-25.35,0.02-45.65-20.2-45.72-45.52c-0.06-25.59,20.56-46.24,46-46.07
		c25.04,0.17,45.66,20.99,45.58,46.02C363.06,464.51,342.56,484.88,317.28,484.9z M317.54,457.85c10.29-0.12,18.57-8.52,18.51-18.77
		c-0.06-10.15-8.56-18.62-18.73-18.66c-10.56-0.04-18.91,8.53-18.7,19.21C298.83,450.04,307.07,457.97,317.54,457.85z"/>
	<path class="st0" d="M133.66,484.9c-25.24-0.07-45.56-20.49-45.54-45.77c0.01-25.16,20.53-45.74,45.66-45.81
		c25.37-0.07,46.06,20.78,45.93,46.27C179.56,464.74,159.01,484.97,133.66,484.9z M133.55,420.42c-10.26,0.18-18.4,8.59-18.33,18.93
		c0.07,10.68,8.56,18.78,19.35,18.47c10.34-0.3,18.26-8.71,18.02-19.14C152.35,428.46,143.78,420.24,133.55,420.42z"/>
	<path class="st0" d="M225.42,576.63c-25.25-0.04-45.57-20.45-45.58-45.74c0-25.26,20.35-45.75,45.55-45.85
		c25.38-0.1,46.22,20.79,46.05,46.17C271.26,556.37,250.7,576.67,225.42,576.63z M244.32,530.63c-0.12-10.23-8.55-18.51-18.82-18.48
		c-10.61,0.03-18.82,8.57-18.56,19.3c0.25,10.37,8.57,18.26,19.06,18.08C236.3,549.36,244.44,540.97,244.32,530.63z"/>
	<path class="st0" d="M133.56,668.35c-25.16-0.13-45.49-20.69-45.44-45.95c0.05-25.47,20.81-45.87,46.44-45.63
		c25.06,0.24,45.34,21.03,45.14,46.28C179.5,648.17,158.81,668.48,133.56,668.35z M152.59,622.35
		c-0.09-10.34-8.37-18.49-18.74-18.47c-10.38,0.02-18.59,8.19-18.64,18.55c-0.05,10.68,8.37,19,19.06,18.82
		C144.6,641.07,152.69,632.73,152.59,622.35z"/>
</g>
</svg>
