<?xml version="1.0" encoding="utf-8"?>
<!-- Generator: Adobe Illustrator 23.0.0, SVG Export Plug-In . SVG Version: 6.00 Build 0)  -->
<svg version="1.1" id="Capa_1" xmlns="http://www.w3.org/2000/svg" xmlns:xlink="http://www.w3.org/1999/xlink" x="0px" y="0px"
	 viewBox="0 0 1366 429.91" style="enable-background:new 0 0 1366 429.91;" xml:space="preserve">
<style type="text/css">
	.st0{fill:#FFFFFF;}
</style>
<g>
	<g>
		<path class="st0" d="M454.36,204.01c0,6.32-5.95,11.9-13.02,11.9c-7.25,0-13.02-5.58-13.02-11.9V96.13
			c0-6.51,6.14-13.2,14.32-13.2h50.4c7.07,0,13.02,5.58,13.02,12.09c0,6.7-5.95,11.53-13.02,11.53h-38.69v30.13h35.15
			c6.51,0,12.83,5.02,12.83,11.72s-5.58,11.9-12.83,11.9h-35.15V204.01z"/>
		<path class="st0" d="M590.13,191.92c0,5.58,2.79,5.02,5.95,6.32c2.79,1.12,4.28,3.16,4.28,7.07c0,5.95-3.53,9.67-13.39,9.67
			c-6.88,0-11.53-1.86-15.81-7.81c-6.88,5.58-14.69,8.37-25.11,8.37c-21.58,0-33.11-11.72-33.11-29.39v-0.56
			c0-18.97,12.28-28.46,36.83-28.46c5.02,0,9.86,0.37,14.69,1.86v-5.95c0-8.74-4.65-12.83-14.14-12.83c-5.21,0-8.37,1.3-12.09,2.97
			c-1.49,0.56-3.53,1.86-7.07,1.86c-7.81,0-10.79-6.14-10.79-10.79c0-10.97,16.37-15.44,31.81-15.44c26.97,0,37.94,13.39,37.94,38.5
			V191.92z M538.42,185.78v0.56c0,6.14,3.53,8.56,11.53,8.56c4.84,0,9.67-1.12,14.51-4.84v-13.39c-4.65-0.93-9.49-1.49-13.2-1.49
			C540.47,175.18,538.42,180.2,538.42,185.78z"/>
		<path class="st0" d="M641.26,144.3c0.19,1.3,0.37,2.42,0.37,3.53v56.17c0,6.51-5.58,11.53-12.83,11.53s-12.83-5.02-12.83-11.53
			v-56.17c0-4.28-0.56-6.51-2.04-8.74c-1.49-1.86-2.61-3.35-2.61-6.14c0-6.7,5.95-11.16,12.65-11.16c3.91,0,7.26,2.42,9.86,5.77
			c8.56-5.02,17.11-8,23.06-8c11.72,0,15.25,4.84,15.25,11.16c0,7.25-5.95,12.09-13.02,11.72
			C651.12,142.07,647.77,141.7,641.26,144.3z"/>
		<path class="st0" d="M715.27,144.3c0.19,1.3,0.37,2.42,0.37,3.53v56.17c0,6.51-5.58,11.53-12.83,11.53s-12.83-5.02-12.83-11.53
			v-56.17c0-4.28-0.56-6.51-2.04-8.74c-1.49-1.86-2.61-3.35-2.61-6.14c0-6.7,5.95-11.16,12.65-11.16c3.91,0,7.26,2.42,9.86,5.77
			c8.56-5.02,17.11-8,23.06-8c11.72,0,15.25,4.84,15.25,11.16c0,7.25-5.95,12.09-13.02,11.72
			C725.13,142.07,721.78,141.7,715.27,144.3z"/>
		<path class="st0" d="M757.11,180.94v-27.71c0-19.53,13.95-34.59,40.36-34.59c26.41,0,40.36,15.06,40.36,34.59v27.71
			c0,19.53-13.95,34.59-40.36,34.59C771.06,215.54,757.11,200.48,757.11,180.94z M812.16,180.94v-27.9
			c0-7.63-5.02-12.46-14.69-12.46c-9.67,0-14.69,4.83-14.69,12.46v27.9c0,7.81,5.02,12.65,14.69,12.65
			C807.14,193.59,812.16,188.76,812.16,180.94z"/>
		<path class="st0" d="M884.32,204.01c0,6.32-4.28,11.35-12.83,11.35c-8.55,0-12.83-5.02-12.83-11.35v-56.35
			c0-6.14-0.74-6.7-1.49-7.81c-2.61-3.53-3.16-4.84-3.16-7.26c0-6.14,5.39-10.79,12.46-10.79c3.91,0,7.26,2.05,9.86,5.39
			c8.37-5.58,17.11-8,24.55-8c23.43,0,35.15,14.51,35.15,36.27v48.54c0,6.32-4.65,11.35-12.83,11.35c-8.18,0-12.83-5.02-12.83-11.35
			v-48.54c0-9.3-4.65-15.06-12.09-15.06c-3.91,0-8.56,1.3-14.32,3.9c0.19,1.3,0.37,2.42,0.37,3.53V204.01z"/>
	</g>
	<g>
		<path class="st0" d="M449.15,334.17c0,16,5.58,26.04,22.32,26.04c6.51,0,11.16-1.67,15.44-3.9v-29.01h-9.67
			c-6.14,0-11.72-5.21-11.72-11.72s5.58-11.72,11.72-11.72h20.27c8.55,0,15.25,4.09,15.25,13.02v41.1
			c0,17.48-23.06,24.92-42.22,24.92c-32.55,0-47.43-19.34-47.43-48.73v-36.83c0-29.39,14.88-48.73,47.43-48.73
			c19.71,0,38.5,9.11,38.5,19.9c0,5.95-5.21,11.16-12.28,11.16c-4.28,0-5.58-1.3-8-2.79l-1.86-1.12c-4.65-2.79-9.49-4.46-15.44-4.46
			c-16.74,0-22.32,10.04-22.32,26.04V334.17z"/>
		<path class="st0" d="M605.37,359.09c0,5.58,2.79,5.02,5.95,6.32c2.79,1.12,4.28,3.16,4.28,7.07c0,5.95-3.53,9.67-13.39,9.67
			c-6.88,0-11.53-1.86-15.81-7.81c-6.88,5.58-14.69,8.37-25.11,8.37c-21.58,0-33.11-11.72-33.11-29.39v-0.56
			c0-18.97,12.28-28.46,36.83-28.46c5.02,0,9.86,0.37,14.69,1.86v-5.95c0-8.74-4.65-12.83-14.14-12.83c-5.21,0-8.37,1.3-12.09,2.97
			c-1.49,0.56-3.53,1.86-7.07,1.86c-7.81,0-10.79-6.14-10.79-10.79c0-10.97,16.37-15.44,31.81-15.44c26.97,0,37.94,13.39,37.94,38.5
			V359.09z M553.67,352.95v0.56c0,6.14,3.53,8.56,11.53,8.56c4.84,0,9.67-1.12,14.51-4.84v-13.39c-4.65-0.93-9.49-1.49-13.2-1.49
			C555.71,342.35,553.67,347.37,553.67,352.95z"/>
		<path class="st0" d="M733.13,319.66c0-6.51-3.9-11.72-10.79-11.72c-4.83,0-9.86,2.42-14.88,6.51c0.19,1.67,0.37,3.16,0.37,4.84
			v51.89c0,6.32-4.28,11.35-12.83,11.35c-8.56,0-12.83-5.02-12.83-11.35v-48.17c0-8.55-1.49-15.06-9.67-15.06
			c-4.65,0-10.23,2.04-15.81,4.83c0.19,0.56,0.19,1.49,0.19,2.05v56.35c0,6.32-4.28,11.35-12.83,11.35
			c-8.55,0-12.83-5.02-12.83-11.35v-56.35c0-6.14-0.74-6.7-1.49-7.81c-2.61-3.53-3.16-5.02-3.16-7.07c0-6.7,5.77-10.97,12.09-10.97
			c4.28,0,7.44,2.05,9.86,5.21c8.37-5.21,17.11-8.18,25.11-8.18c7.81,0,14.88,2.79,21.58,8.18c10.04-5.39,18.04-8.18,28.09-8.18
			c21.95,0,35.52,13.39,35.52,33.29v51.89c0,6.32-4.28,11.35-12.84,11.35c-8.55,0-12.83-5.02-12.83-11.35V319.66z"/>
		<path class="st0" d="M804.91,344.77v6.14c0,6.32,4.84,10.42,14.88,10.42c5.95,0,10.79-1.49,16.74-4.09
			c0.74-0.37,2.42-1.12,5.58-1.12c8.93,0,11.53,5.95,11.53,10.23c0,13.02-23.81,16.37-35.71,16.37c-24.55,0-38.69-14.13-38.69-32.55
			V319.1c0-18.79,13.77-33.11,39.62-33.11c24.36,0,36.45,12.83,36.45,31.62c0,17.86-10.97,28.27-36.08,28.27
			C814.39,345.88,810.3,345.51,804.91,344.77z M818.67,305.89c-8.93,0-13.76,4.65-13.76,12.09v8c5.95,0.56,11.53,0.74,13.39,0.74
			c7.07,0,11.53-2.42,11.53-10.42C829.83,308.87,825.92,305.89,818.67,305.89z"/>
		<path class="st0" d="M906.44,285.99c12.09,0,30.13,2.97,30.13,15.81c0,8-7.07,9.48-10.97,9.48c-6.51,0-9.86-3.9-18.97-3.9
			c-7.07,0-10.79,2.42-10.79,6.7c0,2.6,1.49,4.46,5.58,6.14c13.39,5.77,37.76,8.37,37.76,33.1c0,18.04-12.83,29.39-36.27,29.39
			c-11.9,0-33.48-2.97-33.48-14.51c0-5.39,4.84-10.97,12.09-10.97c6.14,0,11.9,4.09,21.02,4.09c6.7,0,11.35-2.23,11.35-7.44
			c0-3.35-1.86-4.83-3.91-5.95c-12.09-6.7-39.43-7.25-39.43-33.1C870.54,297.71,882.63,285.99,906.44,285.99z"/>
		<path class="st0" d="M970.97,383.08c-8.74,0-15.62-6.7-15.62-14.51s6.88-14.32,15.62-14.32c8.37,0,15.44,6.51,15.44,14.32
			S979.34,383.08,970.97,383.08z"/>
		<path class="st0" d="M1004.44,322.08c0-19.9,11.9-35.52,38.5-35.52c10.97,0,31.8,2.61,31.8,16.18c0,4.46-2.23,9.48-11.53,9.48
			c-1.86,0-3.53-0.19-6.13-1.12c-3.91-1.49-6.88-3.16-12.65-3.16c-10.23,0-14.32,5.39-14.32,14.13v25.11
			c0,8.74,4.09,14.14,14.32,14.14c5.77,0,8.93-1.68,12.65-3.16c1.86-0.74,3.16-1.12,5.76-1.12c9.67,0,11.9,5.21,11.9,9.48
			c0,13.39-20.83,16.18-31.99,16.18c-26.23,0-38.32-15.62-38.32-35.52V322.08z"/>
		<path class="st0" d="M1087.57,348.11V320.4c0-19.53,13.95-34.59,40.36-34.59c26.41,0,40.36,15.06,40.36,34.59v27.71
			c0,19.53-13.95,34.59-40.36,34.59C1101.52,382.71,1087.57,367.65,1087.57,348.11z M1142.62,348.11v-27.9
			c0-7.63-5.02-12.46-14.69-12.46c-9.67,0-14.69,4.83-14.69,12.46v27.9c0,7.81,5.02,12.65,14.69,12.65
			C1137.6,360.76,1142.62,355.93,1142.62,348.11z"/>
		<path class="st0" d="M1291.03,319.66c0-6.51-3.91-11.72-10.79-11.72c-4.84,0-9.86,2.42-14.88,6.51c0.19,1.67,0.37,3.16,0.37,4.84
			v51.89c0,6.32-4.28,11.35-12.83,11.35c-8.55,0-12.83-5.02-12.83-11.35v-48.17c0-8.55-1.49-15.06-9.67-15.06
			c-4.65,0-10.23,2.04-15.81,4.83c0.19,0.56,0.19,1.49,0.19,2.05v56.35c0,6.32-4.28,11.35-12.83,11.35
			c-8.56,0-12.83-5.02-12.83-11.35v-56.35c0-6.14-0.74-6.7-1.49-7.81c-2.6-3.53-3.16-5.02-3.16-7.07c0-6.7,5.76-10.97,12.09-10.97
			c4.28,0,7.44,2.05,9.86,5.21c8.37-5.21,17.11-8.18,25.11-8.18c7.81,0,14.88,2.79,21.57,8.18c10.04-5.39,18.04-8.18,28.09-8.18
			c21.95,0,35.52,13.39,35.52,33.29v51.89c0,6.32-4.28,11.35-12.83,11.35c-8.56,0-12.83-5.02-12.83-11.35V319.66z"/>
	</g>
</g>
<g>
	<path class="st0" d="M90.76,381.24c-5.25-1.86-10.91-2.98-15.66-5.71C61.99,368,55.3,356.18,55.24,341.08
		c-0.16-36.93-0.11-73.87-0.03-110.8c0.05-22.27,17.65-39.9,39.91-40.02c18.68-0.1,37.37-0.02,56.05-0.02c1.17,0,2.33,0,3.49,0
		c0.4-4.33,0.26-8.5,1.27-12.37c1.19-4.54,2.88-9.09,5.2-13.15c17.93-31.38,36.04-62.67,54.15-93.95
		c12.1-20.9,35.35-27.22,56.32-15.19c31.35,17.99,62.6,36.15,93.93,54.18c11.68,6.72,18.85,16.5,20.85,29.93
		c0.06,0.4,0.35,0.76,0.53,1.14c0,2.81,0,5.62,0,8.42c-2.4,14.3-11.59,25.34-18.16,37.63c-2.02,3.77-5.82,4.69-9.06,2.71
		c-3.06-1.87-3.93-5.49-1.93-9.04c3.92-6.96,7.97-13.84,11.93-20.76c8.44-14.73,4.27-30.35-10.47-38.88
		c-31.18-18.05-62.39-36.06-93.61-54.03c-15.32-8.82-30.64-4.64-39.5,10.69c-17.98,31.1-35.9,62.23-53.91,93.31
		c-3.06,5.29-4.86,10.83-4.27,16.95c0.08,0.86,1.36,2.28,2.12,2.3c7,0.18,14,0.11,21.48,0.11c-2.5-7.59-2.28-14.66,2.2-21.18
		c2.65-3.86,6.2-6.56,10.61-8.14c8.85-3.16,18.68-0.27,24.39,7.16c6.37,8.29,6.02,17.69-1.32,28.47c0.29,0.15,0.7,0.31,1.05,0.55
		c11.96,8.4,17.63,20.02,17.65,34.52c0,4.21-0.15,8.43,0.09,12.63c0.07,1.22,0.95,2.88,1.97,3.49c9.64,5.75,19.33,11.39,29.1,16.9
		c13.96,7.87,29.58,3.63,37.75-10.19c4.39-7.43,8.65-14.94,12.96-22.41c1.48-2.56,3.62-4.02,6.65-3.63c2.58,0.32,4.63,1.78,5.09,4.3
		c0.33,1.75,0.14,3.98-0.7,5.51c-4.64,8.4-9.28,16.83-14.42,24.92c-11.08,17.42-33.65,23.28-51.83,13.56
		c-7.89-4.22-15.55-8.88-23.31-13.33c-0.91-0.52-1.86-0.96-3.35-1.73c0,1.73,0,2.97,0,4.2c0,24.94,0.06,49.88-0.02,74.83
		c-0.06,19.46-12.75,35.32-31.43,39.58c-1.35,0.31-2.68,0.67-4.02,1C170.68,381.24,130.72,381.24,90.76,381.24z M150.7,368.35
		c18.03,0,36.07,0.02,54.1-0.01c16.97-0.02,28.5-11.51,28.52-28.45c0.03-36.17,0.03-72.35,0-108.52
		c-0.02-16.72-11.63-28.33-28.32-28.34c-36.17-0.02-72.35-0.02-108.52,0c-16.95,0.01-28.45,11.52-28.46,28.48
		c-0.01,36.07-0.01,72.13,0,108.2c0.01,17.2,11.4,28.62,28.59,28.64C114.63,368.36,132.67,368.35,150.7,368.35z M211.62,190.18
		c4.92-0.01,8.81-3.88,8.83-8.8c0.03-5.04-3.98-8.98-9.04-8.9c-4.9,0.08-8.7,4.01-8.66,8.95
		C202.8,186.36,206.68,190.2,211.62,190.18z"/>
	<path class="st0" d="M233.35,105.89c0.08-11.91,9.82-21.47,21.83-21.41c11.92,0.06,21.55,9.79,21.51,21.75
		c-0.03,12.05-9.89,21.71-22.02,21.59C242.78,127.69,233.27,117.91,233.35,105.89z M263.86,106.25c0.05-4.92-3.76-8.87-8.66-8.95
		c-4.95-0.09-8.92,3.68-9.03,8.57c-0.12,5.09,3.77,9.12,8.81,9.13C259.9,115,263.81,111.15,263.86,106.25z"/>
	<path class="st0" d="M351.87,149.69c-0.05,11.92-9.77,21.57-21.72,21.55c-12.05-0.02-21.71-9.84-21.61-21.98
		c0.1-11.89,9.86-21.43,21.88-21.36C342.33,127.96,351.92,137.7,351.87,149.69z M339.05,149.48c-0.03-4.92-3.91-8.77-8.84-8.78
		c-4.93-0.01-8.82,3.84-8.86,8.76c-0.04,5.06,3.94,9.02,9,8.94C335.26,158.33,339.08,154.41,339.05,149.48z"/>
	<path class="st0" d="M286.79,203.07c11.95,0,21.64,9.66,21.67,21.6c0.03,12.1-9.72,21.8-21.84,21.74
		c-11.91-0.06-21.53-9.79-21.5-21.75C265.14,212.73,274.85,203.07,286.79,203.07z M295.64,224.75c0-4.92-3.85-8.81-8.77-8.85
		c-4.93-0.04-8.87,3.78-8.94,8.68c-0.07,5.07,3.87,9.06,8.93,9.02C291.78,233.56,295.64,229.68,295.64,224.75z"/>
	<path class="st0" d="M292.55,165.85c-0.31,12.04-10.12,21.52-21.99,21.26c-11.99-0.26-21.59-10.12-21.37-21.92
		c0.23-12.12,10.25-21.79,22.2-21.41C283.46,144.17,292.86,153.97,292.55,165.85z M270.65,174.37c4.74,0.17,8.94-3.77,9.16-8.61
		c0.22-4.73-3.68-8.96-8.52-9.24c-4.84-0.28-9.23,3.84-9.34,8.76C261.85,170.03,265.84,174.2,270.65,174.37z"/>
	<path class="st0" d="M342.14,209.36c0.03-3.59,2.86-6.35,6.42-6.27c3.41,0.08,6.11,2.82,6.15,6.25c0.04,3.55-2.79,6.48-6.29,6.49
		C344.95,215.84,342.11,212.92,342.14,209.36z"/>
	<path class="st0" d="M172.39,328.93c0.05-11.95,9.71-21.54,21.68-21.52c11.88,0.02,21.64,9.78,21.65,21.64
		c0.01,12-9.86,21.76-21.94,21.68C181.88,350.66,172.34,340.93,172.39,328.93z M194.06,337.92c4.86-0.03,8.82-3.97,8.84-8.81
		c0.02-4.96-4.09-8.96-9.1-8.86c-4.9,0.09-8.67,4.02-8.61,8.97C185.25,334.13,189.14,337.95,194.06,337.92z"/>
	<path class="st0" d="M194.02,263.96c-11.99,0.01-21.6-9.55-21.63-21.53c-0.03-12.1,9.73-21.87,21.76-21.79
		c11.84,0.08,21.6,9.93,21.56,21.77C215.68,254.31,205.98,263.95,194.02,263.96z M194.14,251.16c4.87-0.06,8.78-4.03,8.76-8.88
		c-0.03-4.8-4.05-8.81-8.86-8.83c-5-0.02-8.94,4.04-8.85,9.09C185.29,247.46,189.19,251.22,194.14,251.16z"/>
	<path class="st0" d="M107.15,263.96c-11.94-0.03-21.55-9.69-21.55-21.65c0.01-11.9,9.71-21.64,21.6-21.67
		c12-0.03,21.79,9.83,21.73,21.89C128.87,254.42,119.14,263.99,107.15,263.96z M107.1,233.45c-4.85,0.09-8.7,4.06-8.67,8.95
		c0.04,5.05,4.05,8.88,9.15,8.74c4.89-0.14,8.64-4.12,8.52-9.06C115.99,237.26,111.94,233.37,107.1,233.45z"/>
	<path class="st0" d="M150.56,307.35c-11.94-0.02-21.56-9.67-21.56-21.64c0-11.95,9.63-21.64,21.55-21.69
		c12.01-0.05,21.86,9.84,21.78,21.84C172.25,297.76,162.52,307.37,150.56,307.35z M159.5,285.59c-0.06-4.84-4.04-8.76-8.9-8.74
		c-5.02,0.01-8.9,4.05-8.78,9.13c0.12,4.9,4.05,8.64,9.01,8.55C155.71,294.45,159.56,290.48,159.5,285.59z"/>
	<path class="st0" d="M107.1,350.74c-11.9-0.06-21.52-9.79-21.5-21.74c0.02-12.05,9.85-21.7,21.97-21.58
		c11.86,0.11,21.45,9.95,21.36,21.9C128.84,341.2,119.05,350.8,107.1,350.74z M116.11,328.98c-0.04-4.89-3.96-8.75-8.87-8.74
		c-4.91,0.01-8.79,3.87-8.82,8.78c-0.02,5.05,3.96,8.99,9.02,8.9C112.33,337.84,116.15,333.89,116.11,328.98z"/>
</g>
</svg>
